{
	"asset":{
		"generator":"Khronos glTF Blender I/O v4.0.44",
		"version":"2.0"
	},
	"extensionsUsed":[
		"KHR_materials_transmission"
	],
	"scene":0,
	"scenes":[
		{
			"name":"Scene",
			"nodes":[
				0
			]
		}
	],
	"nodes":[
		{
			"mesh":0,
			"name":"Circle.001",
			"rotation":[
				-0.010614174418151379,
				-0.7070271372795105,
				-0.7070271372795105,
				0.010614174418151379
			],
			"scale":[
				0.876268744468689,
				0.876268744468689,
				0.8762688040733337
			],
			"translation":[
				0,
				2.546593427658081,
				4.424893379211426
			]
		}
	],
	"materials":[
		{
			"doubleSided":true,
			"extensions":{
				"KHR_materials_transmission":{
					"transmissionFactor":1
				}
			},
			"name":"Material.002",
			"pbrMetallicRoughness":{
				"baseColorFactor":[
					0.1612532138824463,
					0.1612532138824463,
					0.1612532138824463,
					1
				],
				"metallicFactor":0,
				"roughnessFactor":0
			}
		},
		{
			"doubleSided":true,
			"name":"frame color",
			"pbrMetallicRoughness":{
				"roughnessFactor":0
			}
		},
		{
			"doubleSided":true,
			"name":"ear piece",
			"pbrMetallicRoughness":{
				"baseColorFactor":[
					0,
					0,
					0,
					1
				],
				"metallicFactor":0,
				"roughnessFactor":0.24090909957885742
			}
		}
	],
	"meshes":[
		{
			"name":"Circle.001",
			"primitives":[
				{
					"attributes":{
						"POSITION":0,
						"NORMAL":1,
						"TEXCOORD_0":2
					},
					"indices":3,
					"material":0
				},
				{
					"attributes":{
						"POSITION":4,
						"NORMAL":5,
						"TEXCOORD_0":6
					},
					"indices":7,
					"material":1
				},
				{
					"attributes":{
						"POSITION":8,
						"NORMAL":9,
						"TEXCOORD_0":10
					},
					"indices":11,
					"material":2
				}
			]
		}
	],
	"accessors":[
		{
			"bufferView":0,
			"componentType":5126,
			"count":78,
			"max":[
				4.637324333190918,
				-5.78262557837661e-08,
				0.638975203037262
			],
			"min":[
				-4.637324333190918,
				-1.1697920854203403e-07,
				-2.8236773014068604
			],
			"type":"VEC3"
		},
		{
			"bufferView":1,
			"componentType":5126,
			"count":78,
			"type":"VEC3"
		},
		{
			"bufferView":2,
			"componentType":5126,
			"count":78,
			"type":"VEC2"
		},
		{
			"bufferView":3,
			"componentType":5123,
			"count":222,
			"type":"SCALAR"
		},
		{
			"bufferView":4,
			"componentType":5126,
			"count":66805,
			"max":[
				4.990161418914795,
				0.03817630186676979,
				0.6855646371841431
			],
			"min":[
				-4.990161418914795,
				-5.78787088394165,
				-2.881333351135254
			],
			"type":"VEC3"
		},
		{
			"bufferView":5,
			"componentType":5126,
			"count":66805,
			"type":"VEC3"
		},
		{
			"bufferView":6,
			"componentType":5126,
			"count":66805,
			"type":"VEC2"
		},
		{
			"bufferView":7,
			"componentType":5125,
			"count":385512,
			"type":"SCALAR"
		},
		{
			"bufferView":8,
			"componentType":5126,
			"count":856,
			"max":[
				4.898178577423096,
				-5.78787088394165,
				-0.928176760673523
			],
			"min":[
				-4.897336483001709,
				-9.236921310424805,
				-3.3103647232055664
			],
			"type":"VEC3"
		},
		{
			"bufferView":9,
			"componentType":5126,
			"count":856,
			"type":"VEC3"
		},
		{
			"bufferView":10,
			"componentType":5126,
			"count":856,
			"type":"VEC2"
		},
		{
			"bufferView":11,
			"componentType":5123,
			"count":4404,
			"type":"SCALAR"
		}
	],
	"bufferViews":[
		{
			"buffer":0,
			"byteLength":936,
			"byteOffset":0,
			"target":34962
		},
		{
			"buffer":0,
			"byteLength":936,
			"byteOffset":936,
			"target":34962
		},
		{
			"buffer":0,
			"byteLength":624,
			"byteOffset":1872,
			"target":34962
		},
		{
			"buffer":0,
			"byteLength":444,
			"byteOffset":2496,
			"target":34963
		},
		{
			"buffer":0,
			"byteLength":801660,
			"byteOffset":2940,
			"target":34962
		},
		{
			"buffer":0,
			"byteLength":801660,
			"byteOffset":804600,
			"target":34962
		},
		{
			"buffer":0,
			"byteLength":534440,
			"byteOffset":1606260,
			"target":34962
		},
		{
			"buffer":0,
			"byteLength":1542048,
			"byteOffset":2140700,
			"target":34963
		},
		{
			"buffer":0,
			"byteLength":10272,
			"byteOffset":3682748,
			"target":34962
		},
		{
			"buffer":0,
			"byteLength":10272,
			"byteOffset":3693020,
			"target":34962
		},
		{
			"buffer":0,
			"byteLength":6848,
			"byteOffset":3703292,
			"target":34962
		},
		{
			"buffer":0,
			"byteLength":8808,
			"byteOffset":3710140,
			"target":34963
		}
	],
	"buffers":[
		{
			"byteLength":3718948,
			"uri":"glasses2.bin"
		}
	]
}
