{
	"asset":{
		"generator":"Khronos glTF Blender I/O v4.0.44",
		"version":"2.0"
	},
	"extensionsUsed":[
		"KHR_materials_transmission"
	],
	"scene":0,
	"scenes":[
		{
			"name":"Scene",
			"nodes":[
				0,
				1,
				2,
				3,
				4,
				5,
				6,
				7
			]
		}
	],
	"nodes":[
		{
			"mesh":0,
			"name":"Glasses0004.001",
			"scale":[
				2.8159334659576416,
				2.8159334659576416,
				2.8159334659576416
			],
			"translation":[
				-0.0759718269109726,
				-20.39243507385254,
				2.5417232513427734
			]
		},
		{
			"mesh":1,
			"name":"Glasses0001.001",
			"scale":[
				2.8159334659576416,
				2.8159334659576416,
				2.8159334659576416
			],
			"translation":[
				-0.0759718269109726,
				-20.39243507385254,
				2.5417232513427734
			]
		},
		{
			"mesh":2,
			"name":"Glasses0002.001",
			"scale":[
				2.8159334659576416,
				2.8159334659576416,
				2.8159334659576416
			],
			"translation":[
				-0.0759718269109726,
				-20.39243507385254,
				2.5417232513427734
			]
		},
		{
			"mesh":3,
			"name":"Glasses0003.001",
			"scale":[
				2.8159334659576416,
				2.8159334659576416,
				2.8159334659576416
			],
			"translation":[
				-0.0759718269109726,
				-20.39243507385254,
				2.5417232513427734
			]
		},
		{
			"mesh":4,
			"name":"Glasses0004.002",
			"scale":[
				65.21092987060547,
				65.21092987060547,
				65.21092987060547
			],
			"translation":[
				-0.0759718269109726,
				2.1053199768066406,
				4.593493938446045
			]
		},
		{
			"mesh":5,
			"name":"Glasses0001.002",
			"scale":[
				65.21092987060547,
				65.21092987060547,
				65.21092987060547
			],
			"translation":[
				-0.0759718269109726,
				2.1053199768066406,
				4.593493938446045
			]
		},
		{
			"mesh":6,
			"name":"Glasses0002.002",
			"scale":[
				65.21092987060547,
				65.21092987060547,
				65.21092987060547
			],
			"translation":[
				-0.0759718269109726,
				2.1053199768066406,
				4.593493938446045
			]
		},
		{
			"mesh":7,
			"name":"Glasses0003.002",
			"scale":[
				65.21092987060547,
				65.21092987060547,
				65.21092987060547
			],
			"translation":[
				-0.0759718269109726,
				2.1053199768066406,
				4.593493938446045
			]
		}
	],
	"materials":[
		{
			"doubleSided":true,
			"extensions":{
				"KHR_materials_transmission":{
					"transmissionFactor":0.6891191601753235
				}
			},
			"name":"VR",
			"pbrMetallicRoughness":{
				"baseColorTexture":{
					"index":0
				},
				"metallicRoughnessTexture":{
					"index":1
				}
			}
		},
		{
			"doubleSided":true,
			"extensions":{
				"KHR_materials_transmission":{
					"transmissionFactor":0.6891191601753235
				}
			},
			"name":"VR.001",
			"pbrMetallicRoughness":{
				"baseColorTexture":{
					"index":2
				},
				"metallicRoughnessTexture":{
					"index":3
				}
			}
		}
	],
	"meshes":[
		{
			"name":"Cylinder.002",
			"primitives":[
				{
					"attributes":{
						"POSITION":0,
						"NORMAL":1,
						"TEXCOORD_0":2
					},
					"indices":3,
					"material":0
				}
			]
		},
		{
			"name":"Cylinder.003",
			"primitives":[
				{
					"attributes":{
						"POSITION":4,
						"NORMAL":5,
						"TEXCOORD_0":6
					},
					"indices":7,
					"material":0
				}
			]
		},
		{
			"name":"Cylinder.004",
			"primitives":[
				{
					"attributes":{
						"POSITION":8,
						"NORMAL":9,
						"TEXCOORD_0":10
					},
					"indices":11,
					"material":0
				}
			]
		},
		{
			"name":"Cylinder.005",
			"primitives":[
				{
					"attributes":{
						"POSITION":12,
						"NORMAL":13,
						"TEXCOORD_0":14
					},
					"indices":15,
					"material":0
				}
			]
		},
		{
			"name":"Cylinder.001",
			"primitives":[
				{
					"attributes":{
						"POSITION":16,
						"NORMAL":17,
						"TEXCOORD_0":18
					},
					"indices":3,
					"material":1
				}
			]
		},
		{
			"name":"Cylinder.006",
			"primitives":[
				{
					"attributes":{
						"POSITION":19,
						"NORMAL":20,
						"TEXCOORD_0":21
					},
					"indices":7,
					"material":1
				}
			]
		},
		{
			"name":"Cylinder.007",
			"primitives":[
				{
					"attributes":{
						"POSITION":22,
						"NORMAL":23,
						"TEXCOORD_0":24
					},
					"indices":11,
					"material":1
				}
			]
		},
		{
			"name":"Cylinder.008",
			"primitives":[
				{
					"attributes":{
						"POSITION":25,
						"NORMAL":26,
						"TEXCOORD_0":27
					},
					"indices":15,
					"material":1
				}
			]
		}
	],
	"textures":[
		{
			"sampler":0,
			"source":0
		},
		{
			"sampler":0,
			"source":1
		},
		{
			"sampler":0,
			"source":2
		},
		{
			"sampler":0,
			"source":3
		}
	],
	"images":[
		{
			"mimeType":"image/png",
			"name":"Texture_diffuse",
			"uri":"Texture_diffuse.png"
		},
		{
			"mimeType":"image/png",
			"name":"Texture_metalness.png-Texture_roughness",
			"uri":"Texture_metalness_png-Texture_roughness.png"
		},
		{
			"mimeType":"image/png",
			"name":"Texture_diffuse.png-Texture_transmission",
			"uri":"Texture_diffuse_png-Texture_transmission.png"
		},
		{
			"mimeType":"image/png",
			"name":"Texture_metalness.png-Texture_roughness.png",
			"uri":"Texture_metalness_png-Texture_roughness_png.png"
		}
	],
	"accessors":[
		{
			"bufferView":0,
			"componentType":5126,
			"count":336,
			"max":[
				0.06351363658905029,
				0.017752528190612793,
				-0.0008664131164550781
			],
			"min":[
				-0.06351363658905029,
				-0.02979421615600586,
				-0.0854869857430458
			],
			"type":"VEC3"
		},
		{
			"bufferView":1,
			"componentType":5126,
			"count":336,
			"type":"VEC3"
		},
		{
			"bufferView":2,
			"componentType":5126,
			"count":336,
			"type":"VEC2"
		},
		{
			"bufferView":3,
			"componentType":5123,
			"count":864,
			"type":"SCALAR"
		},
		{
			"bufferView":4,
			"componentType":5126,
			"count":692,
			"max":[
				0.05823318660259247,
				0.015354752540588379,
				-0.00034853967372328043
			],
			"min":[
				-0.05823318660259247,
				-0.027396440505981445,
				-0.007387532852590084
			],
			"type":"VEC3"
		},
		{
			"bufferView":5,
			"componentType":5126,
			"count":692,
			"type":"VEC3"
		},
		{
			"bufferView":6,
			"componentType":5126,
			"count":692,
			"type":"VEC2"
		},
		{
			"bufferView":7,
			"componentType":5123,
			"count":2304,
			"type":"SCALAR"
		},
		{
			"bufferView":8,
			"componentType":5126,
			"count":1454,
			"max":[
				0.06755992025136948,
				0.018437862396240234,
				0
			],
			"min":[
				-0.06755992025136948,
				-0.03047943115234375,
				-0.03876090049743652
			],
			"type":"VEC3"
		},
		{
			"bufferView":9,
			"componentType":5126,
			"count":1454,
			"type":"VEC3"
		},
		{
			"bufferView":10,
			"componentType":5126,
			"count":1454,
			"type":"VEC2"
		},
		{
			"bufferView":11,
			"componentType":5123,
			"count":4032,
			"type":"SCALAR"
		},
		{
			"bufferView":12,
			"componentType":5126,
			"count":448,
			"max":[
				0.06385409086942673,
				0.010172486305236816,
				-0.0854869857430458
			],
			"min":[
				-0.06385409086942673,
				-0.012664400041103363,
				-0.13068825006484985
			],
			"type":"VEC3"
		},
		{
			"bufferView":13,
			"componentType":5126,
			"count":448,
			"type":"VEC3"
		},
		{
			"bufferView":14,
			"componentType":5126,
			"count":448,
			"type":"VEC2"
		},
		{
			"bufferView":15,
			"componentType":5123,
			"count":1116,
			"type":"SCALAR"
		},
		{
			"bufferView":16,
			"componentType":5126,
			"count":336,
			"max":[
				0.06351363658905029,
				0.017752528190612793,
				-0.0008664131164550781
			],
			"min":[
				-0.06351363658905029,
				-0.02979421615600586,
				-0.0854869857430458
			],
			"type":"VEC3"
		},
		{
			"bufferView":17,
			"componentType":5126,
			"count":336,
			"type":"VEC3"
		},
		{
			"bufferView":18,
			"componentType":5126,
			"count":336,
			"type":"VEC2"
		},
		{
			"bufferView":19,
			"componentType":5126,
			"count":692,
			"max":[
				0.05823318660259247,
				0.015354752540588379,
				-0.00034853967372328043
			],
			"min":[
				-0.05823318660259247,
				-0.027396440505981445,
				-0.007387532852590084
			],
			"type":"VEC3"
		},
		{
			"bufferView":20,
			"componentType":5126,
			"count":692,
			"type":"VEC3"
		},
		{
			"bufferView":21,
			"componentType":5126,
			"count":692,
			"type":"VEC2"
		},
		{
			"bufferView":22,
			"componentType":5126,
			"count":1454,
			"max":[
				0.06755992025136948,
				0.018437862396240234,
				0
			],
			"min":[
				-0.06755992025136948,
				-0.03047943115234375,
				-0.03876090049743652
			],
			"type":"VEC3"
		},
		{
			"bufferView":23,
			"componentType":5126,
			"count":1454,
			"type":"VEC3"
		},
		{
			"bufferView":24,
			"componentType":5126,
			"count":1454,
			"type":"VEC2"
		},
		{
			"bufferView":25,
			"componentType":5126,
			"count":448,
			"max":[
				0.06385409086942673,
				0.010172486305236816,
				-0.0854869857430458
			],
			"min":[
				-0.06385409086942673,
				-0.012664400041103363,
				-0.13068825006484985
			],
			"type":"VEC3"
		},
		{
			"bufferView":26,
			"componentType":5126,
			"count":448,
			"type":"VEC3"
		},
		{
			"bufferView":27,
			"componentType":5126,
			"count":448,
			"type":"VEC2"
		}
	],
	"bufferViews":[
		{
			"buffer":0,
			"byteLength":4032,
			"byteOffset":0,
			"target":34962
		},
		{
			"buffer":0,
			"byteLength":4032,
			"byteOffset":4032,
			"target":34962
		},
		{
			"buffer":0,
			"byteLength":2688,
			"byteOffset":8064,
			"target":34962
		},
		{
			"buffer":0,
			"byteLength":1728,
			"byteOffset":10752,
			"target":34963
		},
		{
			"buffer":0,
			"byteLength":8304,
			"byteOffset":12480,
			"target":34962
		},
		{
			"buffer":0,
			"byteLength":8304,
			"byteOffset":20784,
			"target":34962
		},
		{
			"buffer":0,
			"byteLength":5536,
			"byteOffset":29088,
			"target":34962
		},
		{
			"buffer":0,
			"byteLength":4608,
			"byteOffset":34624,
			"target":34963
		},
		{
			"buffer":0,
			"byteLength":17448,
			"byteOffset":39232,
			"target":34962
		},
		{
			"buffer":0,
			"byteLength":17448,
			"byteOffset":56680,
			"target":34962
		},
		{
			"buffer":0,
			"byteLength":11632,
			"byteOffset":74128,
			"target":34962
		},
		{
			"buffer":0,
			"byteLength":8064,
			"byteOffset":85760,
			"target":34963
		},
		{
			"buffer":0,
			"byteLength":5376,
			"byteOffset":93824,
			"target":34962
		},
		{
			"buffer":0,
			"byteLength":5376,
			"byteOffset":99200,
			"target":34962
		},
		{
			"buffer":0,
			"byteLength":3584,
			"byteOffset":104576,
			"target":34962
		},
		{
			"buffer":0,
			"byteLength":2232,
			"byteOffset":108160,
			"target":34963
		},
		{
			"buffer":0,
			"byteLength":4032,
			"byteOffset":110392,
			"target":34962
		},
		{
			"buffer":0,
			"byteLength":4032,
			"byteOffset":114424,
			"target":34962
		},
		{
			"buffer":0,
			"byteLength":2688,
			"byteOffset":118456,
			"target":34962
		},
		{
			"buffer":0,
			"byteLength":8304,
			"byteOffset":121144,
			"target":34962
		},
		{
			"buffer":0,
			"byteLength":8304,
			"byteOffset":129448,
			"target":34962
		},
		{
			"buffer":0,
			"byteLength":5536,
			"byteOffset":137752,
			"target":34962
		},
		{
			"buffer":0,
			"byteLength":17448,
			"byteOffset":143288,
			"target":34962
		},
		{
			"buffer":0,
			"byteLength":17448,
			"byteOffset":160736,
			"target":34962
		},
		{
			"buffer":0,
			"byteLength":11632,
			"byteOffset":178184,
			"target":34962
		},
		{
			"buffer":0,
			"byteLength":5376,
			"byteOffset":189816,
			"target":34962
		},
		{
			"buffer":0,
			"byteLength":5376,
			"byteOffset":195192,
			"target":34962
		},
		{
			"buffer":0,
			"byteLength":3584,
			"byteOffset":200568,
			"target":34962
		}
	],
	"samplers":[
		{
			"magFilter":9729,
			"minFilter":9987
		}
	],
	"buffers":[
		{
			"byteLength":204152,
			"uri":"glasses3.bin"
		}
	]
}
