{
  "asset": {
    "generator": "Khronos glTF Blender I/O v4.0.44",
    "version": "2.0"
  },
  "scene": 0,
  "scenes": [
    {
      "name": "Scene",
      "nodes": [0]
    }
  ],
  "nodes": [
    {
      "mesh": 0,
      "name": "Cube",
      "scale": [0.275558203458786, 0.3126765787601471, 0.11549293994903564],
      "translation": [
        0.08829903602600098, 2.2516939640045166, 4.193583965301514
      ]
    }
  ],
  "materials": [
    {
      "doubleSided": true,
      "name": "black.001",
      "pbrMetallicRoughness": {
        "baseColorFactor": [0, 0, 0, 1],
        "metallicFactor": 0.1666666716337204,
        "roughnessFactor": 0.30128204822540283
      }
    },
    {
      "doubleSided": true,
      "name": "Black",
      "pbrMetallicRoughness": {
        "baseColorFactor": [0, 0, 0, 1],
        "metallicFactor": 0.35256409645080566,
        "roughnessFactor": 0.6452991962432861
      }
    },
    {
      "doubleSided": true,
      "name": "silver",
      "pbrMetallicRoughness": {
        "baseColorFactor": [
          0.800000011920929, 0.800000011920929, 0.800000011920929, 1
        ],
        "metallicFactor": 0.6495726704597473,
        "roughnessFactor": 0.0982905924320221
      }
    }
  ],
  "meshes": [
    {
      "name": "Cube.003",
      "primitives": [
        {
          "attributes": {
            "POSITION": 0,
            "NORMAL": 1,
            "TEXCOORD_0": 2
          },
          "indices": 3,
          "material": 0
        },
        {
          "attributes": {
            "POSITION": 4,
            "NORMAL": 5,
            "TEXCOORD_0": 6
          },
          "indices": 7,
          "material": 1
        },
        {
          "attributes": {
            "POSITION": 8,
            "NORMAL": 9,
            "TEXCOORD_0": 10
          },
          "indices": 11,
          "material": 2
        }
      ]
    }
  ],
  "accessors": [
    {
      "bufferView": 0,
      "componentType": 5126,
      "count": 11900,
      "max": [14.28878402709961, 1.9619890451431274, 2.8993160724639893],
      "min": [-14.28878402709961, -6.913017749786377, -1.4494216442108154],
      "type": "VEC3"
    },
    {
      "bufferView": 1,
      "componentType": 5126,
      "count": 11900,
      "type": "VEC3"
    },
    {
      "bufferView": 2,
      "componentType": 5126,
      "count": 11900,
      "type": "VEC2"
    },
    {
      "bufferView": 3,
      "componentType": 5123,
      "count": 55872,
      "type": "SCALAR"
    },
    {
      "bufferView": 4,
      "componentType": 5126,
      "count": 3406,
      "max": [15.22364616394043, 1.6933979988098145, -0.6620016098022461],
      "min": [-15.22364330291748, -1.4780893325805664, -23.942150115966797],
      "type": "VEC3"
    },
    {
      "bufferView": 5,
      "componentType": 5126,
      "count": 3406,
      "type": "VEC3"
    },
    {
      "bufferView": 6,
      "componentType": 5126,
      "count": 3406,
      "type": "VEC2"
    },
    {
      "bufferView": 7,
      "componentType": 5123,
      "count": 12672,
      "type": "SCALAR"
    },
    {
      "bufferView": 8,
      "componentType": 5126,
      "count": 886,
      "max": [13.87888240814209, 1.3734723329544067, 0.26870226860046387],
      "min": [-13.87888240814209, 0.9640328884124756, -0.3948000967502594],
      "type": "VEC3"
    },
    {
      "bufferView": 9,
      "componentType": 5126,
      "count": 886,
      "type": "VEC3"
    },
    {
      "bufferView": 10,
      "componentType": 5126,
      "count": 886,
      "type": "VEC2"
    },
    {
      "bufferView": 11,
      "componentType": 5123,
      "count": 4608,
      "type": "SCALAR"
    }
  ],
  "bufferViews": [
    {
      "buffer": 0,
      "byteLength": 142800,
      "byteOffset": 0,
      "target": 34962
    },
    {
      "buffer": 0,
      "byteLength": 142800,
      "byteOffset": 142800,
      "target": 34962
    },
    {
      "buffer": 0,
      "byteLength": 95200,
      "byteOffset": 285600,
      "target": 34962
    },
    {
      "buffer": 0,
      "byteLength": 111744,
      "byteOffset": 380800,
      "target": 34963
    },
    {
      "buffer": 0,
      "byteLength": 40872,
      "byteOffset": 492544,
      "target": 34962
    },
    {
      "buffer": 0,
      "byteLength": 40872,
      "byteOffset": 533416,
      "target": 34962
    },
    {
      "buffer": 0,
      "byteLength": 27248,
      "byteOffset": 574288,
      "target": 34962
    },
    {
      "buffer": 0,
      "byteLength": 25344,
      "byteOffset": 601536,
      "target": 34963
    },
    {
      "buffer": 0,
      "byteLength": 10632,
      "byteOffset": 626880,
      "target": 34962
    },
    {
      "buffer": 0,
      "byteLength": 10632,
      "byteOffset": 637512,
      "target": 34962
    },
    {
      "buffer": 0,
      "byteLength": 7088,
      "byteOffset": 648144,
      "target": 34962
    },
    {
      "buffer": 0,
      "byteLength": 9216,
      "byteOffset": 655232,
      "target": 34963
    }
  ],
  "buffers": [
    {
      "byteLength": 664448,
      "uri": "glasses1.bin"
    }
  ]
}
